# xmcd CD database file
#
# Track frame offsets:
#	150
#	12070
#	22267
#	36332
#	53670
#	65462
#	76200
#	88940
#	100485
#	111795
#	125160
#	139097
#	153267
#	166115
#	180717
#	194315
#	204895
#
# Disc length: 2901 seconds
#
# Revision: 0
# Processed by: cddbd v1.5.1PL0 Copyright (c) Steve Scherf et al.
# Submitted via: CDex 1.51
#
DISCID=e20b5311
DTITLE=Henning Pertirt - My Style
DYEAR=1999
DGENRE=Blues
TTITLE0=My Style
TTITLE1=Archie's Jive
TTITLE2=Gently Coming Up
TTITLE3=Esddie's Blues
TTITLE4=Big Block Pt.2
TTITLE5=Boogie For You
TTITLE6=Dee Dee And The Vegetable Cake
TTITLE7=Mr. Freddie's Blues
TTITLE8=Jimmy's Rocks
TTITLE9=Lofty Train
TTITLE10=Yancey Special
TTITLE11=Shuffle And Ruffle
TTITLE12=Dumb Rage
TTITLE13=Boogie A La Carte
TTITLE14=Kosovo Prayer
TTITLE15=Yancey's Bugle Call
TTITLE16=Yancey Stop
EXTD=YEAR: 1999
EXTT0=
EXTT1=
EXTT2=
EXTT3=
EXTT4=
EXTT5=
EXTT6=
EXTT7=
EXTT8=
EXTT9=
EXTT10=
EXTT11=
EXTT12=
EXTT13=
EXTT14=
EXTT15=
EXTT16=
PLAYORDER=
